<?xml version="1.0" encoding="utf-8"?>
<!-- Generator: Adobe Illustrator 23.0.5, SVG Export Plug-In . SVG Version: 6.00 Build 0)  -->
<svg version="1.1" id="Layer_1" xmlns="http://www.w3.org/2000/svg" xmlns:xlink="http://www.w3.org/1999/xlink" x="0px" y="0px"
	 viewBox="0 0 2000 2000" style="enable-background:new 0 0 2000 2000;" xml:space="preserve">
<style type="text/css">
	.st0{fill:#1B75BC;}
	.st1{fill:#414042;}
	.st2{fill:#FFFFFF;}
</style>
<g>
	<g>
		<g>
			<path class="st0" d="M782.64,861.57h40.07V1055h120.86v36.45H782.64V861.57z"/>
			<path class="st0" d="M1241.42,994.58v96.88h-40.07V861.57h40.07v95.57h110.35v-95.57h40.07v229.89h-40.07v-96.88H1241.42z"/>
			<path class="st0" d="M1493.32,861.57v229.89h-40.07V861.57H1493.32z"/>
			<path class="st0" d="M1715.32,861.57h40.07v229.89h-33.76l-126.51-163.55v163.55h-40.07V861.57h37.36l122.91,158.95V861.57z"/>
			<path d="M731.23,991.89c0.27,0.1,0.4,0.25,0.48,0.41C732.06,992.07,731.31,991.71,731.23,991.89z"/>
			<path d="M729.9,990.73c-0.1-0.02-0.21-0.12-0.27-0.01C729.72,990.74,729.84,990.83,729.9,990.73z"/>
			<path d="M728.62,989.74C728.24,989.14,728.01,989.89,728.62,989.74L728.62,989.74z"/>
			<path d="M732.69,992.56c-0.22-0.12-0.43-0.24-0.65-0.36C731.71,992.7,732.5,992.86,732.69,992.56z"/>
			<path d="M729.31,990.26C728.69,989.75,728.89,990.46,729.31,990.26L729.31,990.26z"/>
			<path d="M725.68,987.4c-0.14-0.05-0.3-0.19-0.38-0.07C725.44,987.38,725.6,987.52,725.68,987.4z"/>
			<path d="M725.89,987.8c0.15,0.08,0.21,0.18,0.26,0.29C726.39,987.78,726.09,987.52,725.89,987.8z"/>
			<path d="M727.54,989.14c0.17,0.07,0.38,0.26,0.49,0.13C727.97,989.05,727.71,988.9,727.54,989.14z"/>
			<path d="M727.51,988.69c-0.23-0.17-0.42-0.2-0.55-0.02C727.16,988.75,727.43,989.08,727.51,988.69z"/>
			<path d="M726.37,988.2c0.13,0.11,0.25,0.23,0.37,0.35C726.97,988.14,726.63,987.86,726.37,988.2z"/>
			<polygon class="st0" points="1025.99,933.91 985.92,964.51 985.92,1091.46 1025.99,1091.46 1025.99,997.86 1141.92,997.86 
				1141.92,961.4 1025.99,961.4 			"/>
			<polygon class="st1" points="985.92,861.57 985.92,928.57 1025.99,898.02 1156.7,898.02 1156.7,861.57 			"/>
		</g>
		<path class="st0" d="M244.61,858.78h102.93c76.36,0,128.5,47.09,128.5,117.73c0,70.64-52.14,117.73-128.5,117.73H244.61V858.78z
			 M345.53,1057.24c52.48,0,86.45-31.96,86.45-80.73c0-48.77-33.98-80.73-86.45-80.73h-57.18v161.46H345.53z"/>
		<g>
			<path class="st1" d="M739.75,976.2c0,5.25-0.31,10.37-0.95,15.41c-5.01-2.79-10.57-4.56-16.36-4.7c-3.29-0.14-6.56,0-9.85,0.02
				c-2.7,0.05-7.78,0.81-9.73-1.24c-2.17-2.27-5.27-4.03-7.87-5.8c-3.05-2.05-6.15-3.98-9.3-5.84c-5.96-3.53-12.09-6.73-18.32-9.75
				c-6.37-3.12-12.86-6.06-19.25-9.18c-6.49-3.17-12.88-6.44-19.77-8.63c-3.2-1.03-6.44-1.88-9.68-2.7
				c-1.62-0.41-3.24-0.81-4.87-1.19c-1.57-0.38-1.72-2.96-1.88-4.44c-0.24-1.96,0.38-6.56-1.24-7.92c-2.34-1.96-6.61,0.93-8.68,2.22
				c-3.2,1.96-6.11,4.48-8.28,7.56c-0.26,0.38-0.69,0.62-1.17,0.64c-1.38,0.05-2.77,0.12-4.15,0.22
				c-6.18,0.38-12.36,1.31-18.25,3.22c-6.61,2.1-13.07,5.15-19.44,7.85c-6.49,2.74-12.31,6.53-18.39,10.04
				c-0.38,0.31-0.69,0.19-1.12,0.26c-0.6,0.12-1.26,0.67-1.76,0.98c-1.29,0.79-2.55,1.6-3.79,2.48c-2.22,1.57-4.34,3.34-6.23,5.32
				c-3.27,3.43-5.8,7.61-6.61,12.33c-0.19,1.1-0.12,2.19,0.12,3.31c0.29,1.31,1.34,2.03,0.52,3.24c-1.19,1.74-2.72,3.22-4.01,4.89
				c-0.21,0.29-0.43,0.57-0.64,0.88c-0.98-6.15-1.45-12.43-1.45-18.87c0-15.65,2.84-30.48,8.56-44.44
				c5.72-13.98,13.76-26.21,24.14-36.68c10.38-10.47,22.64-18.79,36.83-24.93c14.19-6.13,29.84-9.21,46.99-9.21
				c17.15,0,32.82,3,47.01,9.04c14.17,6.03,26.36,14.24,36.52,24.61c10.16,10.38,18.08,22.54,23.8,36.52
				C736.91,945.72,739.75,960.53,739.75,976.2z"/>
			<path class="st0" d="M738.63,992.73c-1.29,9.66-3.77,18.96-7.44,27.91c-5.72,13.98-13.76,26.21-24.14,36.68
				c-10.38,10.47-22.66,18.79-36.83,24.93c-14.19,6.13-29.84,9.21-46.99,9.21c-17.15,0-32.82-3-47.01-9.04
				c-14.17-6.03-26.36-14.24-36.52-24.61c-10.16-10.38-18.08-22.54-23.8-36.52c-2.43-5.94-4.34-12.05-5.72-18.27
				c1.03,0.07,2.19-0.14,3.27-0.43c0,0.88-1.03,1.29-0.98,2.15c0.05,0.86,0.81,1.43,1.57,1.62c2,0.5,4.39-0.31,6.27-1.02
				c2.84-1.1,5.46-2.77,8.11-4.29c2.89-1.67,5.63-2.41,8.97-2.72c3.32-0.29,5.61,0.24,8.61,1.57c0.48,1.46,0.6,2.96,0.67,4.48
				c0.07,1.79,1.07,3.63,1.96,5.18c2.98,5.2,7.97,8.66,13.09,11.57c2.31,1.31,4.82,1.74,7.39,2.17c0.98,0.17,1.86,0.33,2.77-0.21
				c1.48-0.88-0.43-2.67-1.17-3.43c-1.91-2.05-2.84-5.27-3.72-7.9c-1-2.93-1.74-6.03-1.5-9.16c0.07-0.69,0.19-1.38,0.38-2.05
				c0.64-2.46,1.38-2.36,3.34-2.62c3.6-0.43,7.2-0.5,10.8-0.79c7.18-0.53,13.76-3.01,20.68-4.84c6.13-1.62,12.45-2.5,18.7-3.65
				c5.37-0.98,10.28-3.43,15.6-4.63c2.48-0.57,5.1-1.19,7.61-1.07c2.91,0.12,5.8,0.43,8.71,0.72c2.62,0.26,5.27,0.5,7.92,0.55
				c0.02,0,0.05,0,0.05,0c2.89,0.02,7.51,0.48,10.33,1.05c4.29,0.86,8.59,1.6,12.81,2.69c2.31,0.62,4.6,1.34,6.82,2.24
				c2.03,0.81,5.84,2.05,6.87,4.06c2.36,4.67,2.84,9.95,4.48,14.86c1.86,5.53,5.49,8.94,9.66,12.78c1.03-0.98,0.86-2.62,0.79-3.91
				c-0.05-0.81,0.07-1.67-0.29-2.41c-0.5-1.03,0.12-1.77,0.64-2.81c1.53-3.15,5.7-7.99,3.86-11.5c0.62-0.33,1.41-0.07,2.05-0.02
				c1.26,0.12,2.34-0.76,3.39-1.34c2.22-1.24,4.44-2.5,6.63-3.79C730.78,994.11,734.95,994.5,738.63,992.73z"/>
			<path class="st2" d="M738.79,991.61c-0.05,0.38-0.1,0.74-0.17,1.12c-3.67,1.77-7.85,1.38-11.31,3.36
				c-2.19,1.29-4.41,2.55-6.63,3.79c-1.05,0.57-2.12,1.46-3.39,1.34c-0.64-0.05-1.43-0.31-2.05,0.02c1.84,3.51-2.34,8.35-3.86,11.5
				c-0.52,1.05-1.14,1.79-0.64,2.81c0.36,0.74,0.24,1.6,0.29,2.41c0.07,1.29,0.24,2.93-0.79,3.91c-4.17-3.84-7.8-7.25-9.66-12.78
				c-1.65-4.91-2.12-10.18-4.48-14.86c-1.03-2-4.84-3.24-6.87-4.06c-2.22-0.91-4.51-1.62-6.82-2.24c-4.22-1.1-8.51-1.84-12.81-2.69
				c-2.81-0.57-7.44-1.03-10.33-1.05c0,0-0.02,0-0.05,0c-2.65-0.05-5.29-0.29-7.92-0.55c-2.91-0.29-5.8-0.6-8.71-0.72
				c-2.5-0.12-5.13,0.5-7.61,1.07c-5.32,1.19-10.23,3.65-15.6,4.63c-6.25,1.14-12.57,2.03-18.7,3.65
				c-6.92,1.84-13.5,4.32-20.68,4.84c-3.6,0.29-7.2,0.36-10.8,0.79c-1.96,0.26-2.7,0.17-3.34,2.62c-0.19,0.67-0.31,1.36-0.38,2.05
				c-0.24,3.12,0.5,6.22,1.5,9.16c0.88,2.62,1.81,5.84,3.72,7.9c0.74,0.76,2.65,2.55,1.17,3.43c-0.91,0.55-1.79,0.38-2.77,0.21
				c-2.58-0.43-5.08-0.86-7.39-2.17c-5.13-2.91-10.11-6.37-13.09-11.57c-0.88-1.55-1.88-3.39-1.96-5.18
				c-0.07-1.53-0.19-3.03-0.67-4.48c-3.01-1.33-5.29-1.86-8.61-1.57c-3.34,0.31-6.08,1.05-8.97,2.72c-2.65,1.53-5.27,3.2-8.11,4.29
				c-1.88,0.72-4.27,1.53-6.27,1.02c-0.76-0.19-1.53-0.76-1.57-1.62c-0.05-0.86,0.98-1.26,0.98-2.15c-1.07,0.29-2.24,0.5-3.27,0.43
				c-0.55-2.43-1.03-4.87-1.38-7.32c0.21-0.31,0.43-0.6,0.64-0.88c1.29-1.67,2.81-3.15,4.01-4.89c0.81-1.22-0.24-1.93-0.52-3.24
				c-0.24-1.12-0.31-2.22-0.12-3.31c0.81-4.72,3.34-8.9,6.61-12.33c1.88-1.98,4.01-3.75,6.23-5.32c1.24-0.88,2.5-1.69,3.79-2.48
				c0.5-0.31,1.17-0.86,1.76-0.98c0.43-0.07,0.74,0.05,1.12-0.26c6.08-3.51,11.9-7.3,18.39-10.04c6.37-2.7,12.83-5.75,19.44-7.85
				c5.89-1.91,12.07-2.84,18.25-3.22c1.38-0.1,2.77-0.17,4.15-0.22c0.48-0.02,0.91-0.26,1.17-0.64c2.17-3.08,5.08-5.61,8.28-7.56
				c2.08-1.29,6.34-4.17,8.68-2.22c1.62,1.36,1,5.96,1.24,7.92c0.17,1.48,0.31,4.06,1.88,4.44c1.62,0.38,3.24,0.79,4.87,1.19
				c3.24,0.81,6.49,1.67,9.68,2.7c6.89,2.19,13.29,5.46,19.77,8.63c6.39,3.12,12.88,6.06,19.25,9.18
				c6.23,3.03,12.36,6.23,18.32,9.75c3.15,1.86,6.25,3.79,9.3,5.84c2.6,1.77,5.7,3.53,7.87,5.8c1.96,2.05,7.04,1.29,9.73,1.24
				c3.29-0.02,6.56-0.17,9.85-0.02C728.23,987.05,733.79,988.82,738.79,991.61z"/>
		</g>
	</g>
	<g>
		<g>
			<path class="st1" d="M1348.83,1109.15c1.09,0,2.42,0.17,3.99,0.5c1.57,0.33,2.96,0.83,4.17,1.49l-1.81,4.21l-1.13-0.32
				c-1.18-0.36-2.11-0.61-2.81-0.75c-0.7-0.14-1.56-0.2-2.58-0.2c-1.63,0-3.09,0.45-4.39,1.36c-1.3,0.9-2.32,2.2-3.06,3.89
				c-0.74,1.69-1.11,3.67-1.11,5.93c0,2.02,0.32,3.87,0.97,5.55c0.65,1.68,1.59,3.01,2.83,3.99c1.24,0.98,2.7,1.47,4.39,1.47
				c2.23,0,4.48-0.47,6.75-1.41l2.22,4.35c-1.15,0.6-2.55,1.09-4.19,1.45c-1.65,0.36-3.13,0.54-4.46,0.54
				c-3.11,0-5.77-0.7-7.97-2.08c-2.2-1.39-3.86-3.28-4.98-5.68c-1.12-2.4-1.68-5.11-1.68-8.13c0-3.14,0.61-5.93,1.83-8.38
				c1.22-2.45,2.96-4.35,5.21-5.73C1343.27,1109.84,1345.87,1109.15,1348.83,1109.15z"/>
			<path class="st1" d="M1358.39,1140.59l12-30.8h4.98l11.96,30.44l-5.89,0.82l-2.76-7.7h-11.69l-2.72,7.25H1358.39z
				 M1368.71,1128.58h8.15l-4.12-10.74L1368.71,1128.58z"/>
			<path class="st1" d="M1391.63,1140.59v-30.8h9.65c3.56,0,6.48,0.81,8.77,2.42c2.28,1.62,3.42,3.96,3.42,7.04
				c0,1.84-0.48,3.46-1.43,4.85c-0.95,1.39-2.23,2.48-3.83,3.26l7.56,13.23h-6.25l-6.52-11.69h-5.53v11.69H1391.63z
				 M1407.26,1119.53c0-3.23-2.05-4.85-6.16-4.85h-3.62v9.42h3.71c1.84,0,3.31-0.37,4.42-1.11
				C1406.71,1122.25,1407.26,1121.1,1407.26,1119.53z"/>
			<path class="st1" d="M1440.69,1136.01l0.95,4.57h-21.56v-30.8h20.61l0.9,4.62h-15.67v8.29h10.05l0.95,4.66h-11.01v8.65H1440.69z"
				/>
			<path class="st1" d="M1462.43,1109.79v30.8h-5.84v-30.8H1462.43z"/>
			<path class="st1" d="M1475.97,1119.98v20.61h-5.84v-30.8h5.84l14.27,20.56v-20.56h5.89v30.8h-5.89L1475.97,1119.98z"/>
			<path class="st1" d="M1500.43,1109.79h24.91l0.95,4.62h-10.55v26.18h-5.93v-26.18h-9.38V1109.79z"/>
			<path class="st1" d="M1551.2,1136.01l0.95,4.57h-21.56v-30.8h20.61l0.9,4.62h-15.67v8.29h10.05l0.95,4.66h-11.01v8.65H1551.2z"/>
			<path class="st1" d="M1562.75,1136.01h13.59l0.91,4.57h-20.34v-30.8h5.84V1136.01z"/>
			<path class="st1" d="M1587.39,1136.01h13.59l0.91,4.57h-20.34v-30.8h5.84V1136.01z"/>
			<path class="st1" d="M1612.03,1109.79v30.8h-5.84v-30.8H1612.03z"/>
			<path class="st1" d="M1637.13,1128.27h-6.48l0.5-4.53h11.23v15.22c-1.27,0.66-2.73,1.21-4.39,1.63c-1.66,0.42-3.4,0.63-5.21,0.63
				c-3.11,0-5.82-0.7-8.13-2.11c-2.31-1.41-4.08-3.31-5.32-5.73c-1.24-2.42-1.86-5.1-1.86-8.06c0-3.08,0.69-5.85,2.06-8.31
				c1.37-2.46,3.28-4.39,5.73-5.78c2.45-1.39,5.19-2.08,8.24-2.08c1.12,0,2.49,0.17,4.12,0.5c1.63,0.33,3.06,0.83,4.3,1.49
				l-1.86,4.21c-0.85-0.27-1.25-0.39-1.22-0.36c-1.15-0.33-2.06-0.57-2.74-0.7c-0.68-0.14-1.52-0.2-2.51-0.2
				c-1.87,0-3.56,0.42-5.07,1.27c-1.51,0.85-2.71,2.11-3.6,3.78c-0.89,1.68-1.34,3.72-1.34,6.14c0,2.21,0.38,4.15,1.13,5.82
				c0.75,1.68,1.82,2.96,3.19,3.85c1.37,0.89,2.95,1.34,4.73,1.34c1.39,0,2.88-0.17,4.48-0.5V1128.27z"/>
			<path class="st1" d="M1668.88,1136.01l0.95,4.57h-21.56v-30.8h20.61l0.9,4.62h-15.67v8.29h10.05l0.95,4.66h-11.01v8.65H1668.88z"
				/>
			<path class="st1" d="M1680.43,1119.98v20.61h-5.84v-30.8h5.84l14.27,20.56v-20.56h5.89v30.8h-5.89L1680.43,1119.98z"/>
			<path class="st1" d="M1720.87,1109.15c1.09,0,2.41,0.17,3.99,0.5c1.57,0.33,2.96,0.83,4.17,1.49l-1.81,4.21l-1.13-0.32
				c-1.18-0.36-2.11-0.61-2.81-0.75c-0.7-0.14-1.56-0.2-2.58-0.2c-1.63,0-3.09,0.45-4.39,1.36c-1.3,0.9-2.32,2.2-3.06,3.89
				c-0.74,1.69-1.11,3.67-1.11,5.93c0,2.02,0.32,3.87,0.97,5.55c0.65,1.68,1.59,3.01,2.83,3.99c1.24,0.98,2.7,1.47,4.39,1.47
				c2.23,0,4.48-0.47,6.75-1.41l2.22,4.35c-1.15,0.6-2.55,1.09-4.19,1.45c-1.65,0.36-3.13,0.54-4.46,0.54
				c-3.11,0-5.77-0.7-7.97-2.08c-2.2-1.39-3.86-3.28-4.98-5.68c-1.12-2.4-1.68-5.11-1.68-8.13c0-3.14,0.61-5.93,1.83-8.38
				c1.22-2.45,2.96-4.35,5.21-5.73C1715.31,1109.84,1717.92,1109.15,1720.87,1109.15z"/>
			<path class="st1" d="M1754.44,1136.01l0.95,4.57h-21.56v-30.8h20.61l0.9,4.62h-15.67v8.29h10.05l0.95,4.66h-11.01v8.65H1754.44z"
				/>
		</g>
		<rect x="244.61" y="1122.85" class="st1" width="1072.44" height="4.67"/>
	</g>
</g>
</svg>
